<svg xmlns="http://www.w3.org/2000/svg" viewBox="0 0 185.87 156.89"><defs><style>.a{fill:#ede9e4;}.b{fill:#587f14;}.c{fill:#603813;}</style></defs><path class="a" d="M97.93,38.39c.11-1.37.17-2.8.17-4.27,0-10.22-4.69-21-8-21s-12.39,10.77-12.39,21a15.26,15.26,0,0,0,.93,5.17,59.49,59.49,0,1,0,19.29-.9Z"/><path d="M11.69,140.57a4.5,4.5,0,0,1-2-.42A4.38,4.38,0,0,1,8.19,139a5.84,5.84,0,0,1-1-1.89,8.44,8.44,0,0,1-.35-2.5,8,8,0,0,1,.36-2.47,5.73,5.73,0,0,1,1-1.88A4.27,4.27,0,0,1,9.77,129a4.68,4.68,0,0,1,2-.41,3.67,3.67,0,0,1,1.79.42,4.38,4.38,0,0,1,1.23,1l-.48.54a3.53,3.53,0,0,0-1.1-.86,3,3,0,0,0-1.42-.33,4,4,0,0,0-1.71.37,3.71,3.71,0,0,0-1.29,1A4.77,4.77,0,0,0,8,132.39a8.59,8.59,0,0,0,0,4.35,5,5,0,0,0,.81,1.66,3.7,3.7,0,0,0,1.27,1.06,3.66,3.66,0,0,0,1.67.37,3.46,3.46,0,0,0,1.6-.36,4.56,4.56,0,0,0,1.33-1.06l.47.51a5,5,0,0,1-1.49,1.21A4.11,4.11,0,0,1,11.69,140.57Z"/><path d="M21.06,140.57a4.22,4.22,0,0,1-1.91-.43,4.33,4.33,0,0,1-1.51-1.22,5.69,5.69,0,0,1-1-1.9,8.35,8.35,0,0,1-.35-2.48,8.16,8.16,0,0,1,.35-2.46,5.63,5.63,0,0,1,1-1.87A4.14,4.14,0,0,1,19.15,129,4.68,4.68,0,0,1,23,129a4.14,4.14,0,0,1,1.51,1.19,5.63,5.63,0,0,1,1,1.87,8.16,8.16,0,0,1,.35,2.46,8.35,8.35,0,0,1-.35,2.48,5.69,5.69,0,0,1-1,1.9A4.33,4.33,0,0,1,23,140.14,4.23,4.23,0,0,1,21.06,140.57Zm0-.74a3.39,3.39,0,0,0,1.59-.37,3.59,3.59,0,0,0,1.23-1.07,5.08,5.08,0,0,0,.8-1.67,7.68,7.68,0,0,0,.28-2.18,7.57,7.57,0,0,0-.28-2.15,4.92,4.92,0,0,0-.8-1.64,3.6,3.6,0,0,0-1.23-1,3.51,3.51,0,0,0-1.59-.37,3.46,3.46,0,0,0-2.84,1.41,5.11,5.11,0,0,0-.79,1.64,7.57,7.57,0,0,0-.28,2.15,7.68,7.68,0,0,0,.28,2.18,5.28,5.28,0,0,0,.79,1.67,3.59,3.59,0,0,0,1.23,1.07A3.47,3.47,0,0,0,21.06,139.83Z"/><path d="M31.48,140.57a5.09,5.09,0,0,1-2.25-.48,5.46,5.46,0,0,1-1.66-1.25l.53-.57a4.67,4.67,0,0,0,1.5,1.14,4.31,4.31,0,0,0,1.88.42,3.19,3.19,0,0,0,2.1-.64,2.06,2.06,0,0,0,.77-1.67,2.29,2.29,0,0,0-.17-.92,2.26,2.26,0,0,0-.44-.65,2.88,2.88,0,0,0-.66-.46l-.8-.39-1.75-.78c-.24-.11-.51-.24-.79-.39a3.22,3.22,0,0,1-.76-.57,2.9,2.9,0,0,1-.57-.8,2.73,2.73,0,0,1,0-2.26,2.77,2.77,0,0,1,.7-.9,3.23,3.23,0,0,1,1.07-.58,4.14,4.14,0,0,1,1.34-.21,4,4,0,0,1,1.86.41,4.77,4.77,0,0,1,1.34,1l-.45.53a4,4,0,0,0-1.19-.85,3.57,3.57,0,0,0-1.56-.33,2.92,2.92,0,0,0-1.86.56,1.84,1.84,0,0,0-.7,1.51,1.76,1.76,0,0,0,.19.86,2.19,2.19,0,0,0,.49.6,3.54,3.54,0,0,0,.65.44c.23.12.46.23.67.32l1.75.77a8.17,8.17,0,0,1,.93.48,3.83,3.83,0,0,1,.77.61,2.62,2.62,0,0,1,.53.83,3.07,3.07,0,0,1,.2,1.15,3,3,0,0,1-.26,1.23,2.86,2.86,0,0,1-.74,1,3.58,3.58,0,0,1-1.17.65A4.57,4.57,0,0,1,31.48,140.57Z"/><path d="M37.59,140.36V128.82h1.14l2.41,6.78c.15.42.31.84.46,1.27l.45,1.28h.07c.16-.43.3-.86.44-1.28s.29-.85.44-1.27l2.4-6.78h1.16v11.54h-.79v-7.58c0-.48,0-1,0-1.55s.05-1.08.07-1.57H45.8l-.89,2.57-2.49,6.87h-.7l-2.5-6.87-.91-2.57h-.07c0,.49,0,1,.07,1.57s0,1.07,0,1.55v7.58Z"/><path d="M50,140.36V128.82h6.32v.7H50.76v4.36h4.62v.7H50.76v5.08h5.69v.7ZM52.82,128l-.35-.4,2.19-2.15.49.58Z"/><path d="M61.46,140.36V129.52H57.78v-.7h8.16v.7H62.26v10.84Z"/><path d="M68.15,140.36V128.82H69v11.54Z"/><path d="M76.45,140.57a4.53,4.53,0,0,1-2-.42A4.26,4.26,0,0,1,73,139a5.48,5.48,0,0,1-1-1.89,8.12,8.12,0,0,1-.35-2.5,8,8,0,0,1,.36-2.47,5.54,5.54,0,0,1,1-1.88A4.27,4.27,0,0,1,74.53,129a4.69,4.69,0,0,1,2-.41,3.66,3.66,0,0,1,1.78.42,4.11,4.11,0,0,1,1.23,1l-.47.54a3.69,3.69,0,0,0-1.11-.86,3,3,0,0,0-1.42-.33,3.89,3.89,0,0,0-1.7.37,3.74,3.74,0,0,0-1.3,1,4.58,4.58,0,0,0-.81,1.64,8.59,8.59,0,0,0,0,4.35,4.84,4.84,0,0,0,.8,1.66,3.8,3.8,0,0,0,1.27,1.06,3.69,3.69,0,0,0,1.67.37,3.46,3.46,0,0,0,1.6-.36,4.44,4.44,0,0,0,1.33-1.06l.47.51a5,5,0,0,1-1.49,1.21A4.08,4.08,0,0,1,76.45,140.57Z"/><path d="M85.82,140.57a4.22,4.22,0,0,1-1.91-.43,4.43,4.43,0,0,1-1.51-1.22,5.88,5.88,0,0,1-1-1.9,8.35,8.35,0,0,1-.35-2.48,8.16,8.16,0,0,1,.35-2.46,5.82,5.82,0,0,1,1-1.87A4.23,4.23,0,0,1,83.91,129a4.34,4.34,0,0,1,1.91-.41,4.43,4.43,0,0,1,1.93.41,4.19,4.19,0,0,1,1.5,1.19,5.63,5.63,0,0,1,1,1.87,7.86,7.86,0,0,1,.35,2.46,8,8,0,0,1-.35,2.48,5.69,5.69,0,0,1-1,1.9,4.39,4.39,0,0,1-1.5,1.22A4.3,4.3,0,0,1,85.82,140.57Zm0-.74a3.39,3.39,0,0,0,1.59-.37,3.71,3.71,0,0,0,1.24-1.07,5.07,5.07,0,0,0,.79-1.67,7.68,7.68,0,0,0,.28-2.18,7.57,7.57,0,0,0-.28-2.15,4.91,4.91,0,0,0-.79-1.64,3.73,3.73,0,0,0-1.24-1,3.51,3.51,0,0,0-1.59-.37A3.5,3.5,0,0,0,83,130.75a5.11,5.11,0,0,0-.79,1.64,7.94,7.94,0,0,0-.28,2.15,8.06,8.06,0,0,0,.28,2.18,5.28,5.28,0,0,0,.79,1.67,3.53,3.53,0,0,0,1.24,1.07A3.43,3.43,0,0,0,85.82,139.83Z"/><path d="M96.24,140.57a5,5,0,0,1-2.24-.48,5.38,5.38,0,0,1-1.67-1.25l.53-.57a4.6,4.6,0,0,0,1.51,1.14,4.23,4.23,0,0,0,1.87.42,3.16,3.16,0,0,0,2.1-.64,2.06,2.06,0,0,0,.77-1.67A2,2,0,0,0,98.5,136a2.88,2.88,0,0,0-.66-.46c-.25-.13-.51-.26-.8-.39l-1.75-.78q-.36-.16-.78-.39a3.27,3.27,0,0,1-.77-.57,3.39,3.39,0,0,1-.57-.8,2.54,2.54,0,0,1-.22-1.12,2.51,2.51,0,0,1,.25-1.14,2.77,2.77,0,0,1,.7-.9,3.34,3.34,0,0,1,1.07-.58,4.14,4.14,0,0,1,1.34-.21,4,4,0,0,1,1.86.41,4.63,4.63,0,0,1,1.34,1l-.45.53a4,4,0,0,0-1.19-.85,3.57,3.57,0,0,0-1.56-.33,2.92,2.92,0,0,0-1.86.56,1.86,1.86,0,0,0-.7,1.51,1.76,1.76,0,0,0,.2.86,2,2,0,0,0,.49.6,3.16,3.16,0,0,0,.64.44c.24.12.46.23.67.32l1.75.77a6.78,6.78,0,0,1,.93.48,3.57,3.57,0,0,1,.77.61,2.62,2.62,0,0,1,.53.83,2.89,2.89,0,0,1,.2,1.15,2.83,2.83,0,0,1-.26,1.23,2.74,2.74,0,0,1-.74,1,3.48,3.48,0,0,1-1.17.65A4.53,4.53,0,0,1,96.24,140.57Z"/><path d="M105.85,140.36V128.82h.84l4.87,8.14,1.3,2.3h.07c0-.56-.05-1.13-.07-1.69s0-1.12,0-1.68v-7.07h.77v11.54h-.84l-4.86-8.14-1.3-2.3h-.07c0,.56,0,1.11.07,1.64s0,1.08,0,1.64v7.16Z"/><path d="M115.43,140.36l4.07-11.54h.8l4.06,11.54h-.84l-1.34-4H117.6l-1.36,4Zm3.15-6.8-.73,2.16H122l-.74-2.16-.66-2c-.21-.63-.42-1.3-.62-2h-.07c-.19.71-.4,1.38-.61,2S118.82,132.87,118.58,133.56Z"/><path d="M127.92,140.36V129.52h-3.68v-.7h8.16v.7h-3.67v10.84Z"/><path d="M138.44,140.57a4.59,4.59,0,0,1-1.43-.22,3.22,3.22,0,0,1-1.25-.75,3.72,3.72,0,0,1-.86-1.43,6.54,6.54,0,0,1-.33-2.24v-7.11h.81v7a6.17,6.17,0,0,0,.25,1.92,3.38,3.38,0,0,0,.68,1.22,2.34,2.34,0,0,0,1,.66,3.48,3.48,0,0,0,1.16.19,3.68,3.68,0,0,0,1.2-.19,2.37,2.37,0,0,0,1-.66,3.25,3.25,0,0,0,.69-1.22,5.84,5.84,0,0,0,.27-1.92v-7h.75v7.11a6.54,6.54,0,0,1-.33,2.24,4,4,0,0,1-.88,1.43,3.18,3.18,0,0,1-1.24.75A4.74,4.74,0,0,1,138.44,140.57Z"/><path d="M145.71,140.36V128.82H149a6.86,6.86,0,0,1,1.56.16,3.18,3.18,0,0,1,1.19.54,2.42,2.42,0,0,1,.76.94,3.34,3.34,0,0,1,.28,1.41A2.93,2.93,0,0,1,152,134a3.67,3.67,0,0,1-2.16,1l3.18,5.36h-.93L149,135.05h-2.45v5.31Zm.81-6h2.29a3.88,3.88,0,0,0,2.36-.62,2.25,2.25,0,0,0,.81-1.9,2,2,0,0,0-.82-1.83,4.28,4.28,0,0,0-2.35-.54h-2.29Z"/><path d="M153.68,140.36l4.06-11.54h.81l4.06,11.54h-.84l-1.35-4h-4.57l-1.36,4Zm3.15-6.8-.73,2.16h4.1l-.74-2.16c-.23-.69-.46-1.34-.67-2s-.41-1.3-.61-2h-.07c-.2.71-.4,1.38-.61,2S157.07,132.87,156.83,133.56Z"/><path d="M164.45,140.36V128.82h.81v11.54Z"/><path d="M171.67,140.57a5.09,5.09,0,0,1-2.25-.48,5.46,5.46,0,0,1-1.66-1.25l.53-.57a4.67,4.67,0,0,0,1.5,1.14,4.31,4.31,0,0,0,1.88.42,3.19,3.19,0,0,0,2.1-.64,2.06,2.06,0,0,0,.77-1.67,2.29,2.29,0,0,0-.17-.92,2.1,2.1,0,0,0-.45-.65,2.61,2.61,0,0,0-.65-.46l-.8-.39-1.75-.78c-.24-.11-.51-.24-.79-.39a3.22,3.22,0,0,1-.76-.57,2.9,2.9,0,0,1-.57-.8,2.73,2.73,0,0,1,0-2.26,2.77,2.77,0,0,1,.7-.9,3.23,3.23,0,0,1,1.07-.58,4.14,4.14,0,0,1,1.34-.21,4,4,0,0,1,1.86.41,4.77,4.77,0,0,1,1.34,1l-.45.53a4,4,0,0,0-1.2-.85,3.5,3.5,0,0,0-1.55-.33,2.92,2.92,0,0,0-1.86.56,1.84,1.84,0,0,0-.7,1.51,1.76,1.76,0,0,0,.19.86,2.19,2.19,0,0,0,.49.6,3.54,3.54,0,0,0,.65.44c.23.12.46.23.67.32l1.75.77a8.17,8.17,0,0,1,.93.48,3.83,3.83,0,0,1,.77.61,2.62,2.62,0,0,1,.53.83,3.07,3.07,0,0,1,.2,1.15,3,3,0,0,1-.26,1.23,2.76,2.76,0,0,1-.75,1,3.43,3.43,0,0,1-1.16.65A4.57,4.57,0,0,1,171.67,140.57Z"/><path class="b" d="M104.92,35c-3-21-5.15-35-12-35s-19,14-22,35c-2.79,19.56-6.16,37.32,15.21,38.48q-.48-3.77-.86-7.55c-.17-1.75-.32-3.51-.46-5.26a19.66,19.66,0,0,1-7.53-5.34,18.58,18.58,0,0,1-4.17-8.45,17.87,17.87,0,0,0,5.22,7.38,17.22,17.22,0,0,0,6.25,3.34c-.15-2.33-.24-4.68-.28-7a18.3,18.3,0,0,1-4.71-7.51,17.58,17.58,0,0,1-.51-8.8,17,17,0,0,0,1.44,8.44A16.82,16.82,0,0,0,84.31,48c.06-3.24.28-6.44.59-9.62a15.4,15.4,0,0,1-2.76-5.84,15.06,15.06,0,0,1,0-6.58,14.78,14.78,0,0,0,.52,6.45A14.44,14.44,0,0,0,85,37q.24-2.19.51-4.38c.36-2.75.78-5.49,1.32-8.21.28-1.36.59-2.72,1-4.05a13.56,13.56,0,0,1,1.59-3.83,13.37,13.37,0,0,0-1.3,3.9c-.28,1.35-.49,2.71-.66,4.07-.31,2.4-.51,4.8-.66,7.21A14.7,14.7,0,0,1,88.6,29a14.91,14.91,0,0,1,5.24-4A14.94,14.94,0,0,0,89,29.31a14.58,14.58,0,0,0-2.34,5.21c-.1,2.14-.17,4.29-.19,6.43,0,.83,0,1.67,0,2.5a17.81,17.81,0,0,1,4-3.87,17.59,17.59,0,0,1,8.25-3.11,17.14,17.14,0,0,0-7.63,3.89A16.77,16.77,0,0,0,86.55,47c0,.73.08,1.47.13,2.19s.15,1.54.23,2.3a19.67,19.67,0,0,1,6.93-3.15,18.75,18.75,0,0,1,9.42.26,17.89,17.89,0,0,0-9,1.18,17.51,17.51,0,0,0-7,5.18l0,0c.45,3.52,1,7,1.64,10.53.49,2.7,1.64,8,1.65,8.07a32,32,0,0,0,7,13.37A31.17,31.17,0,0,1,92.6,73.32C111.75,71.22,107.63,54,104.92,35Z"/><path class="c" d="M22.5,115.54q-5.61,0-6.12-4.91-2.8,4.91-7.07,4.91A9.06,9.06,0,0,1,2.52,113,9.91,9.91,0,0,1,0,105.72q0-7.27,3.57-11.41a11.63,11.63,0,0,1,9.24-4.14A6,6,0,0,1,19,94.56c.22-1.27.45-2.55.71-3.82a47.43,47.43,0,0,0,7-.38l.83-.19-4.4,24.09a4.58,4.58,0,0,0,3.19-1.78l1,.76A6,6,0,0,1,22.5,115.54ZM7.94,113a2.49,2.49,0,0,0,2.26,1.12,4.46,4.46,0,0,0,3.12-1.66,16,16,0,0,0,3.38-5.48c.13-.55.37-1.88.73-4s.67-3.84.93-5.2A9.07,9.07,0,0,0,17,93.54a3.37,3.37,0,0,0-2.87-1.78q-3.12,0-5,5.58A35.72,35.72,0,0,0,7.2,109,7.69,7.69,0,0,0,7.94,113Z"/><path class="c" d="M31.23,92.46A6,6,0,0,1,36,90.17a6.43,6.43,0,0,1,4.5,1.46,5.37,5.37,0,0,1,1.59,4.15v.38q2.86-6,7.46-6,4.9,0,4.91,5.1a8.82,8.82,0,0,1-1.4,4.46c-.94,1.57-1.87,3.07-2.81,4.49a7.23,7.23,0,0,0-1.4,3.79H47.36q0-2.36,2.74-6.37t2.74-6.22a4,4,0,0,0-.86-3,3.63,3.63,0,0,0-2.55-.8,4.92,4.92,0,0,0-3.31,1.47,11.79,11.79,0,0,0-2.71,3.7,29,29,0,0,0-2.3,5.41v.07L38.82,115H31.17l4.21-23.52a4.52,4.52,0,0,0-3.19,1.79Z"/><path class="c" d="M71.2,101.64a4.44,4.44,0,0,1-1.34-3.25,4.52,4.52,0,0,1,1.34-3.28,4.34,4.34,0,0,1,3.25-1.37,5.61,5.61,0,0,1,1.47.25q-1.22-2.23-4.53-2.23T65.52,96Q63,100.17,63,108.46a6,6,0,0,0,1.3,4.24,4.36,4.36,0,0,0,3.28,1.37,8.4,8.4,0,0,0,3.61-.77,8.16,8.16,0,0,0,2.58-1.81,14,14,0,0,0,1.65-2.2,8.11,8.11,0,0,0,1.28-2.68l1.15.51a9.65,9.65,0,0,1-1.15,2.71,11.76,11.76,0,0,1-2.1,2.77,11.1,11.1,0,0,1-3.38,2,12.83,12.83,0,0,1-5,.93q-5.18,0-7.81-2.46a8.69,8.69,0,0,1-2.65-6.72q0-7.59,3.8-11.89t10.29-4.3q4.4,0,6.76,2.23A7.7,7.7,0,0,1,79,98.26a4.42,4.42,0,0,1-1.37,3.51A4.72,4.72,0,0,1,74.39,103,4.35,4.35,0,0,1,71.2,101.64Z"/><path class="c" d="M104.15,115.54q-5.61,0-6.12-4.91-2.81,4.91-7.07,4.91A9.06,9.06,0,0,1,84.17,113a9.91,9.91,0,0,1-2.52-7.23q0-7.27,3.57-11.41a11.63,11.63,0,0,1,9.24-4.14,6,6,0,0,1,6.19,4.39c.21-1.27.44-2.55.7-3.82a47.43,47.43,0,0,0,7-.38l.83-.19-4.4,24.09a4.54,4.54,0,0,0,3.19-1.78l1,.76A6,6,0,0,1,104.15,115.54ZM89.59,113a2.5,2.5,0,0,0,2.26,1.12A4.46,4.46,0,0,0,95,112.41a15.83,15.83,0,0,0,3.38-5.48c.13-.55.37-1.88.73-4s.67-3.84.93-5.2a9,9,0,0,0-1.34-4.21,3.36,3.36,0,0,0-2.87-1.78q-3.12,0-5,5.58A35.46,35.46,0,0,0,88.85,109,7.69,7.69,0,0,0,89.59,113Z"/><path class="c" d="M134.62,115.54q-5.61,0-6.12-4.79-2.81,4.78-7.14,4.79t-6.63-2.46a9.44,9.44,0,0,1-2.29-6.72q0-7.53,3.57-11.86a11.41,11.41,0,0,1,9.24-4.33,6.47,6.47,0,0,1,5,2,7.25,7.25,0,0,1,1,1.53l3.44-18.74a4.56,4.56,0,0,0-3.18,1.79l-1-.77a6,6,0,0,1,4.81-2.29,6.45,6.45,0,0,1,4.5,1.46,5.37,5.37,0,0,1,1.59,4.15,15.51,15.51,0,0,1-.13,1.65q-3.12,17.53-6.05,33.34a4.54,4.54,0,0,0,3.18-1.78l1,.76A6,6,0,0,1,134.62,115.54ZM120.25,113a2,2,0,0,0,1.91,1.08,4.23,4.23,0,0,0,2.52-.89,7.85,7.85,0,0,0,2-2.3,22.41,22.41,0,0,0,2.16-4l1.85-10.07a7,7,0,0,0-1.34-3.73c-.8-1.13-2.19-1.69-4.14-1.69-1.36,0-2.63,2-3.82,6a40.54,40.54,0,0,0-1.79,11.6A9.07,9.07,0,0,0,120.25,113Z"/><path class="c" d="M149.92,115.54a6.47,6.47,0,0,1-4.5-1.47,4.92,4.92,0,0,1-1.62-3.83q0-.83,1-6.94l2.1-11.41h-2.68l.13-1.15h2.74a46,46,0,0,0,6.95-.38l.89-.19-4.4,24.09a4.54,4.54,0,0,0,3.19-1.78l1,.76A6,6,0,0,1,149.92,115.54Zm-.83-31.49a4.45,4.45,0,0,1-1.34-3.25,4.56,4.56,0,0,1,1.34-3.29,4.37,4.37,0,0,1,3.25-1.37A4.68,4.68,0,0,1,157,80.8a4.37,4.37,0,0,1-1.37,3.25,4.54,4.54,0,0,1-3.28,1.34A4.42,4.42,0,0,1,149.09,84.05Z"/><path class="c" d="M180.83,115.54q-5.61,0-6.12-4.91-2.81,4.91-7.07,4.91a9.06,9.06,0,0,1-6.79-2.59,9.91,9.91,0,0,1-2.52-7.23q0-7.27,3.57-11.41a11.63,11.63,0,0,1,9.24-4.14,6,6,0,0,1,6.19,4.39c.21-1.27.44-2.55.7-3.82a47.43,47.43,0,0,0,7-.38l.83-.19-4.4,24.09a4.58,4.58,0,0,0,3.19-1.78l1,.76A6,6,0,0,1,180.83,115.54ZM166.27,113a2.49,2.49,0,0,0,2.26,1.12,4.46,4.46,0,0,0,3.12-1.66,16,16,0,0,0,3.38-5.48c.13-.55.37-1.88.73-4s.67-3.84.93-5.2a9.07,9.07,0,0,0-1.34-4.21,3.37,3.37,0,0,0-2.87-1.78q-3.12,0-5,5.58A35.46,35.46,0,0,0,165.53,109,7.69,7.69,0,0,0,166.27,113Z"/><path class="c" d="M93.63,86.89a21,21,0,0,1,2.75-5.27,20.37,20.37,0,0,1,4-4.17,19.43,19.43,0,0,1,10.16-4,18.12,18.12,0,0,0-8.42,5.8,17,17,0,0,0-2.49,4.22,16.74,16.74,0,0,0-1.15,4.58Z"/></svg>